<svg id="Layer_1" data-name="Layer 1" xmlns="http://www.w3.org/2000/svg" xmlns:xlink="http://www.w3.org/1999/xlink" viewBox="0 0 55.21 58.03"><defs><style>.cls-1{fill:none;}.cls-2{isolation:isolate;}.cls-3{fill:#1d3b12;}.cls-4{clip-path:url(#clip-path);}.cls-5{fill:#214415;}.cls-6{fill:#204315;}.cls-7{fill:#204114;}.cls-8{fill:#1f4014;}.cls-9{fill:#1e3f13;}.cls-10{fill:#1e3d13;}.cls-11{fill:#1d3c12;}.cls-12{fill:#1c3a12;}.cls-13{fill:#1c3912;}.cls-14{fill:#1b3811;}.cls-15{fill:#1a3611;}.cls-16{fill:#1a3510;}.cls-17{fill:#193410;}.cls-18{fill:#183210;}.cls-19{fill:#18310f;}.cls-20{fill:#17300f;}.cls-21{fill:#162e0e;}.cls-22{fill:#162d0e;}.cls-23{fill:#152c0d;}.cls-24{fill:#142a0d;}.cls-25{fill:#14290d;}.cls-26{fill:#13270c;}.cls-27{fill:#12260c;}.cls-28{fill:#12250b;}.cls-29{fill:#11230b;}.cls-30{clip-path:url(#clip-path-2);}.cls-31{fill:#333;}.cls-32{fill:#323232;}.cls-33{fill:#313131;}.cls-34{fill:#303030;}.cls-35{fill:#2f2f2f;}.cls-36{fill:#2e2e2e;}.cls-37{fill:#2d2d2d;}.cls-38{fill:#2c2c2c;}.cls-39{fill:#2b2b2b;}.cls-40{fill:#2a2a2a;}.cls-41{fill:#292929;}.cls-42{fill:#282828;}.cls-43{fill:#272727;}.cls-44{fill:#262626;}.cls-45{fill:#252525;}.cls-46{fill:#242424;}.cls-47{fill:#232323;}.cls-48{fill:#222;}.cls-49{fill:#212121;}.cls-50{fill:#202020;}.cls-51{fill:#1f1f1f;}.cls-52{fill:#1e1e1e;}.cls-53{fill:#1d1d1d;}.cls-54{fill:#1c1c1c;}.cls-55{fill:#1b1b1b;}.cls-56{clip-path:url(#clip-path-3);}.cls-57{fill:#1f4713;}</style><clipPath id="clip-path"><path class="cls-1" d="M4,29C4,15.23,14.59,4,27.6,4V5C15.16,5,5,15.76,5,29S15.16,53,27.6,53s22.6-10.75,22.61-24S40,5,27.6,5V4A22.55,22.55,0,0,1,40.79,8.28,25.44,25.44,0,0,1,51.21,29c0,13.8-10.59,25-23.61,25a22.55,22.55,0,0,1-13.19-4.28A25.45,25.45,0,0,1,4,29Z"/></clipPath><clipPath id="clip-path-2"><path class="cls-1" d="M27.6,55V54c13,0,23.61-11.22,23.61-25S40.62,4,27.6,4,4,15.23,4,29,14.59,54,27.6,54v1C14,55,3,43.34,3,29S14,3,27.6,3,52.21,14.7,52.21,29,41.19,55,27.6,55Z"/></clipPath><clipPath id="clip-path-3"><path class="cls-1" d="M27.6,1V0c15.22,0,27.6,13,27.6,29S42.82,58,27.6,58,0,45,0,29,12.38,0,27.6,0V1C13,1,1,13.56,1,29S13,57,27.6,57s26.6-12.55,26.6-28S42.25,1,27.6,1Z"/></clipPath></defs><title>Artboard 1</title><g class="cls-2"><path class="cls-3" d="M27.6,5C40,5,50.21,15.76,50.21,29S40,53,27.6,53,5,42.28,5,29,15.16,5,27.6,5Z"/><g class="cls-2"><g class="cls-4"><g class="cls-2"><path class="cls-5" d="M27.6,5V4c13,0,23.61,11.22,23.61,25S40.62,54,27.6,54,4,42.81,4,29,14.59,4,27.6,4V5C15.16,5,5,15.76,5,29S15.16,53,27.6,53s22.6-10.75,22.61-24S40,5,27.6,5"/><path class="cls-5" d="M27.6,5C4.44,6-1.7,34.16,13.31,47.62c14.7,13.16,38.13.58,36.87-19.8C49.39,14.92,39.68,5.11,27.6,5V4c13,0,23.61,11.22,23.61,25S40.62,54,27.6,54,4,42.81,4,29,14.59,4,27.6,4V5"/><path class="cls-6" d="M27.6,5C4.44,6-1.71,34.16,13.31,47.62,28,60.78,51.44,48.2,50.19,27.82,49.4,14.91,39.69,5.1,27.6,5V4c13,0,23.61,11.22,23.61,25S40.62,54,27.6,54,4,42.81,4,29,14.59,4,27.6,4V5"/><path class="cls-7" d="M27.6,5C4.44,6-1.71,34.16,13.31,47.62,28,60.78,51.44,48.19,50.2,27.82,49.41,14.9,39.7,5.08,27.6,5V4c13,0,23.61,11.22,23.61,25S40.62,54,27.6,54,4,42.81,4,29,14.59,4,27.6,4V5"/><path class="cls-8" d="M27.6,5C4.43,6-1.72,34.16,13.31,47.62c14.68,13.16,38.14.57,36.9-19.81C49.42,14.89,39.71,5.07,27.6,5V4c13,0,23.61,11.22,23.61,25S40.62,54,27.6,54,4,42.81,4,29,14.59,4,27.6,4V5"/><path class="cls-9" d="M27.6,5h0C4.43,6-1.72,34.16,13.31,47.63s38.17,1.08,36.91-19.81C49.44,14.88,39.72,5.06,27.6,5V4c13,0,23.61,11.22,23.61,25S40.62,54,27.6,54,4,42.81,4,29,14.59,4,27.6,4V5"/><path class="cls-10" d="M27.6,5C4.42,6-1.73,34.16,13.3,47.63s38.17,1.08,36.92-19.81C49.45,14.86,39.72,5,27.6,5V4c13,0,23.61,11.22,23.61,25S40.62,54,27.6,54,4,42.81,4,29,14.59,4,27.6,4V5"/><path class="cls-11" d="M27.6,5h0C6.06,5.89-3,33,13.3,47.63c15.05,13.48,38.18,1.07,36.93-19.82C49.46,14.85,39.73,5,27.6,5V4c13,0,23.61,11.22,23.61,25S40.62,54,27.6,54,4,42.81,4,29,14.59,4,27.6,4V5"/><path class="cls-12" d="M27.6,5C6.06,5.88-3,33,13.3,47.63c15,13.48,38.18,1.07,36.94-19.82C49.48,14.84,39.74,5,27.6,5V4c13,0,23.61,11.22,23.61,25S40.62,54,27.6,54,4,42.81,4,29,14.59,4,27.6,4V5"/><path class="cls-13" d="M27.6,5C6.05,5.88-3,33,13.3,47.64c15,13.46,38.16,1,37-19.82C49.5,14.83,39.76,5,27.6,5V4c13,0,23.61,11.22,23.61,25S40.62,54,27.6,54,4,42.81,4,29,14.59,4,27.6,4V5"/><path class="cls-14" d="M27.6,4.95h0C6.05,5.87-3,33,13.29,47.64c15,13.45,38.17,1,37-19.82C49.51,14.78,39.77,5,27.6,4.95V4c13,0,23.61,11.22,23.61,25S40.62,54,27.6,54,4,42.81,4,29,14.59,4,27.6,4v.94"/><path class="cls-15" d="M27.6,4.94h0C6,5.87-3,33,13.29,47.64c15,13.46,38.18,1,37-19.83C49.53,14.77,40,5.15,27.6,4.94V4c13,0,23.61,11.22,23.61,25S40.62,54,27.6,54,4,42.81,4,29,14.59,4,27.6,4v.94"/><path class="cls-16" d="M27.6,4.93h0C6,5.86-3.05,33,13.29,47.64c15,13.46,38.19,1,37-19.83-.75-13-10.5-22.88-22.68-22.88V4c13,0,23.61,11.22,23.61,25S40.62,54,27.6,54,4,42.81,4,29,14.59,4,27.6,4v.93"/><path class="cls-17" d="M27.6,4.92C6,5.86-3.05,33,13.29,47.65c15,13.46,38.21,1,37-19.83-.75-13-10.5-22.89-22.7-22.89V4c13,0,23.61,11.22,23.61,25S40.62,54,27.6,54,4,42.81,4,29,14.59,4,27.6,4v.92"/><path class="cls-18" d="M27.6,4.91C6.05,5.86-3,33,13.29,47.65c14.94,13.39,38.13,1,37-19.84C49.62,14.76,39.86,4.91,27.6,4.91V4c13,0,23.61,11.22,23.61,25S40.62,54,27.6,54,4,42.81,4,29,14.59,4,27.6,4v.91"/><path class="cls-19" d="M27.6,4.9C6.05,5.85-3,33,13.28,47.65c14.79,13.25,38,.82,37-19.84C49.74,14.75,40,4.9,27.6,4.9V4c13,0,23.61,11.22,23.61,25S40.62,54,27.6,54,4,42.81,4,29,14.59,4,27.6,4V4.9"/><path class="cls-20" d="M27.6,4.89h0C6.06,5.85-3,33,13.28,47.65c14.94,13.39,38.16,1,37.07-19.84-.78-15-12.31-23-22.75-22.92V4c13,0,23.61,11.22,23.61,25S40.62,54,27.6,54,4,42.81,4,29,14.59,4,27.6,4v.88"/><path class="cls-21" d="M27.6,4.87C6.06,5.85-3,33,13.28,47.66c14.75,13.21,38,.78,37.1-19.85C49.81,14.56,40.23,4.91,27.6,4.87V4c13,0,23.61,11.22,23.61,25S40.62,54,27.6,54,4,42.81,4,29,14.59,4,27.6,4v.87"/><path class="cls-22" d="M27.6,4.85h0C4.51,6-1.67,34.27,13.28,47.66,28,60.89,51,48.74,50.42,28,50.07,14.5,40.48,4.78,27.6,4.85V4c13,0,23.61,11.22,23.61,25S40.62,54,27.6,54,4,42.81,4,29,14.59,4,27.6,4v.85"/><path class="cls-23" d="M27.6,4.82C4.53,6-1.66,34.29,13.27,47.66c14,12.54,38.57,2.1,37.16-21-1-16-12.91-21.8-22.83-21.86V4c13,0,23.61,11.22,23.61,25S40.62,54,27.6,54,4,42.81,4,29,14.59,4,27.6,4v.81"/><path class="cls-24" d="M27.6,4.77C6.19,5.91-2.91,33.17,13.27,47.66c14.4,12.9,38.71,2,37.26-22.13a18.88,18.88,0,0,0-1.28-6.47,26.13,26.13,0,0,1,2,10c0,13.8-10.59,25-23.61,25S4,42.81,4,29,14.59,4,27.6,4v.77"/><path class="cls-25" d="M27.6,4.69h0c-23.34,1.55-29.38,29.5-14.33,43,15.65,14,38.87.32,37.65-22.21a11,11,0,0,0-.15-1.29A26.46,26.46,0,0,1,51.21,29c0,13.8-10.59,25-23.61,25S4,42.81,4,29,14.59,4,27.6,4v.69"/><path class="cls-26" d="M27.6,4.51C2,7.18-.77,36.25,13.55,47.92,31,62.14,51.3,45.53,51.2,28.46q0,.28,0,.56c0,13.8-10.59,25-23.61,25S4,42.81,4,29,14.59,4,27.6,4v.51"/><path class="cls-27" d="M27.6,4.06C2.52,7.9-2.07,36.44,15,49,30.27,60.35,48.61,47,51,32.49,49.38,44.65,39.5,54,27.6,54,14.59,54,4,42.81,4,29S14.59,4,27.6,4v.06"/><path class="cls-28" d="M24.69,4.2C7.22,7.19-4.92,34.36,14.94,49c14,10.35,31.31-.18,35.19-12.54C47.12,46.65,38.16,54,27.6,54,14.59,54,4,42.81,4,29,4,16.2,13.14,5.61,24.88,4.17h0l-.18,0"/><path class="cls-29" d="M20.79,5.07c-16.88,6-24.4,35.56-2.12,46.15,13.43,6.38,26-3.59,29.71-10.34A23.48,23.48,0,0,1,27.6,54C14.59,54,4,42.81,4,29,4,17.69,11.14,8.09,20.91,5h0l-.12,0"/><path class="cls-24" d="M39.31,7.31c-1-.59-4.83-2.53-11.71-2.53V4A22.47,22.47,0,0,1,39.54,7.44h0l-.23-.14"/><path class="cls-25" d="M35.12,5.31c-2.29-.76-7-.63-7.52-.62V4a22.31,22.31,0,0,1,7.69,1.36h0l-.17-.06"/><path class="cls-26" d="M31.62,4.37a16.65,16.65,0,0,0-4,.14V4a22.35,22.35,0,0,1,4.16.39h0l-.15,0"/><path class="cls-27" d="M28.24,4a4.91,4.91,0,0,0-.64,0V4h.64"/></g></g></g><g class="cls-2"><g class="cls-30"><g class="cls-2"><path class="cls-31" d="M27.6,55V54c13,0,23.61-11.22,23.61-25S40.62,4,27.6,4,4,15.23,4,29,14.59,54,27.6,54v1C14,55,3,43.34,3,29S14,3,27.6,3,52.21,14.7,52.21,29s-11,26-24.61,26"/><path class="cls-31" d="M27.6,55C2.45,53.95-4.27,23.45,12,8.89,28-5.39,53.54,8.22,52.18,30.31c-.86,14-11.43,24.6-24.58,24.72V54c13,0,23.61-11.22,23.61-25S40.62,4,27.6,4,4,15.23,4,29,14.59,54,27.6,54v1"/><path class="cls-32" d="M27.6,55C2.47,53.93-4.25,23.44,12,8.9,28-5.39,53.54,8.22,52.18,30.31c-.86,14-11.42,24.6-24.57,24.72V54c13,0,23.61-11.22,23.61-25S40.62,4,27.6,4,4,15.23,4,29,14.59,54,27.6,54v1"/><path class="cls-33" d="M27.6,55C2.49,53.91-4.22,23.43,12,8.9c16-14.29,41.5-.68,40.14,21.41C51.31,44.28,40.75,54.9,27.6,55V54c13,0,23.61-11.22,23.61-25S40.62,4,27.6,4,4,15.23,4,29,14.59,54,27.6,54v1"/><path class="cls-34" d="M27.6,55h0C2.51,53.89-4.2,23.42,12,8.9,28-5.39,53.53,8.22,52.17,30.31,51.31,44.27,40.75,54.89,27.6,55V54c13,0,23.61-11.22,23.61-25S40.62,4,27.6,4,4,15.23,4,29,14.59,54,27.6,54v1"/><path class="cls-35" d="M27.6,55C2.54,53.87-4.18,23.41,12,8.91c16-14.29,41.49-.69,40.13,21.4-.86,14-11.42,24.58-24.56,24.7V54c13,0,23.61-11.22,23.61-25S40.62,4,27.6,4,4,15.23,4,29,14.59,54,27.6,54v1"/><path class="cls-36" d="M27.6,55C2.56,53.85-4.16,23.4,12,8.91c16-14.29,41.48-.69,40.12,21.4C51.3,44.27,40.74,54.88,27.6,55V54c13,0,23.61-11.22,23.61-25S40.62,4,27.6,4,4,15.23,4,29,14.59,54,27.6,54v1"/><path class="cls-37" d="M27.6,55C2.58,53.84-4.14,23.39,12,8.91c16-14.29,41.48-.69,40.11,21.4C51.3,44.26,40.74,54.88,27.6,55V54c13,0,23.61-11.22,23.61-25S40.62,4,27.6,4,4,15.23,4,29,14.59,54,27.6,54v1"/><path class="cls-38" d="M27.6,55h0C2.6,53.82-4.12,23.38,12,8.92c16-14.29,41.47-.7,40.11,21.39C51.3,44.26,40.74,54.87,27.6,55V54c13,0,23.61-11.22,23.61-25S40.62,4,27.6,4,4,15.23,4,29,14.59,54,27.6,54v1"/><path class="cls-39" d="M27.6,55C2.62,53.8-4.1,23.37,12,8.92c16-14.29,41.46-.7,40.1,21.39C51.29,44.25,40.74,54.86,27.6,55V54c13,0,23.61-11.22,23.61-25S40.62,4,27.6,4,4,15.23,4,29,14.59,54,27.6,54V55"/><path class="cls-40" d="M27.6,55C4.41,53.87-5.47,24.6,12.05,8.92c16-14.29,41.46-.7,40.1,21.39C51.29,44.25,40.74,54.86,27.6,55V54c13,0,23.61-11.22,23.61-25S40.62,4,27.6,4,4,15.23,4,29,14.59,54,27.6,54V55"/><path class="cls-41" d="M27.6,55c-23.84-.67-31.66-30.28-17-44.72,16.27-16,41.88-3.88,41.52,19.61-.18,12-9.62,25-24.56,25.11V54c13,0,23.61-11.22,23.61-25S40.62,4,27.6,4,4,15.23,4,29,14.59,54,27.6,54V55"/><path class="cls-42" d="M27.6,55C2.76,53.69-4,23.29,12.06,8.93S53.5,8.22,52.14,30.31C51.28,44.25,40.73,54.85,27.6,55V54c13,0,23.61-11.22,23.61-25S40.62,4,27.6,4,4,15.23,4,29,14.59,54,27.6,54V55"/><path class="cls-43" d="M27.6,55C2.76,53.68-4,23.29,12.06,8.93S53.5,8.22,52.14,30.31C51.28,44.24,40.73,54.84,27.6,55V54c13,0,23.61-11.22,23.61-25S40.62,4,27.6,4,4,15.23,4,29,14.59,54,27.6,54V55"/><path class="cls-44" d="M27.6,54.94C2.77,53.67-4,23.29,12.06,8.94S53.5,8.22,52.14,30.31C51.28,44.24,40.73,54.83,27.6,54.94V54c13,0,23.61-11.22,23.61-25S40.62,4,27.6,4,4,15.23,4,29,14.59,54,27.6,54v.91"/><path class="cls-45" d="M27.6,54.93c-23.07-1.18-32.95-30.4-15.54-46,16-14.3,41.43-.72,40.07,21.37-.86,13.93-11.4,24.52-24.53,24.62V54c13,0,23.61-11.22,23.61-25S40.62,4,27.6,4,4,15.23,4,29,14.59,54,27.6,54v.89"/><path class="cls-46" d="M27.6,54.92c-23-1.17-32.87-30.39-15.54-46C28-5.42,53.49,8.16,52.13,30.31c-.86,13.93-11.4,24.51-24.53,24.61V54c13,0,23.61-11.22,23.61-25S40.62,4,27.6,4,4,15.23,4,29,14.59,54,27.6,54v.88"/><path class="cls-47" d="M27.6,54.91c-22.45-.48-33-29.66-16.31-45.25,16-15,41.2-2.51,40.85,20.21-.18,12-9.62,24.94-24.54,25V54c13,0,23.61-11.22,23.61-25S40.62,4,27.6,4,4,15.23,4,29,14.59,54,27.6,54v.87"/><path class="cls-48" d="M27.6,54.88C4.76,53.6-5.11,24.41,12.07,9c16-14.36,41.42-.79,40,21.35-.86,14-11.4,24.53-24.52,24.57V54c13,0,23.61-11.22,23.61-25S40.62,4,27.6,4,4,15.23,4,29,14.59,54,27.6,54v.85"/><path class="cls-49" d="M27.6,54.85C6.73,54.06-6.39,25.58,12.08,9c16-14.36,41.4-.79,40,21.34-.86,14-11.4,24.52-24.52,24.54V54c13,0,23.61-11.22,23.61-25S40.62,4,27.6,4,4,15.23,4,29,14.59,54,27.6,54v.81"/><path class="cls-50" d="M5.84,38.71C-3.45,16.11,17.71-2.57,36.51,4.84c20.77,8.19,21,39.69.35,48.15A22.45,22.45,0,0,1,27.6,54.8V54c13,0,23.61-11.22,23.61-25S40.62,4,27.6,4,4,15.23,4,29a26.16,26.16,0,0,0,2,10h0l-.11-.27"/><path class="cls-51" d="M4.4,33.66C-.31,9.58,23.46-4,40.63,7c18.8,12.08,13.87,42.08-7.76,47.21a22,22,0,0,1-5.26.48V54c13,0,23.61-11.22,23.61-25S40.62,4,27.6,4,4,15.23,4,29a26.5,26.5,0,0,0,.45,4.86h0l0-.21"/><path class="cls-52" d="M4,29.38C3.06,4.76,29.23-4.27,44.25,10,60.08,25,49.9,54.63,28.9,54.61c-.39,0-.91,0-1.3-.07V54c13,0,23.61-11.22,23.61-25S40.62,4,27.6,4,4,15.23,4,29q0,.28,0,.56H4c0-.06,0-.14,0-.2"/><path class="cls-53" d="M4.25,25.35C7-.08,34.66-2.31,46.1,12c15.22,19.08-1,43.92-17.07,42.25-.48,0-1-.13-1.43-.19C40.62,54,51.21,42.81,51.21,29S40.62,4,27.6,4C15.7,4,5.83,13.39,4.22,25.54h0l0-.19"/><path class="cls-54" d="M5.13,21.35C11.26-1.56,38.09-2,48.55,15.6c7.89,13.25,2.75,36.15-18.22,38.27,11.74-1.44,20.88-12,20.88-24.85,0-13.79-10.59-25-23.61-25C17,4,8.08,11.39,5.07,21.54h0l.05-.19"/><path class="cls-55" d="M6.91,17C17-4.3,43.39.63,50.55,20c2,5.32,5,26.51-16.26,33,9.77-3.07,16.92-12.66,16.92-24,0-13.79-10.59-25-23.61-25A23.48,23.48,0,0,0,6.82,17.17h0l.1-.19"/><path class="cls-50" d="M27.6,54.8c-5.48-.3-7.74-1.58-11.93-4.21A22.46,22.46,0,0,0,27.6,54v.77"/><path class="cls-51" d="M27.6,54.72c-2.57-.12-2.57-.12-7.69-2A22.31,22.31,0,0,0,27.6,54v.69"/><path class="cls-52" d="M27.6,54.54a39.73,39.73,0,0,1-4.16-.9A22.35,22.35,0,0,0,27.6,54v.51"/><path class="cls-53" d="M27.6,54.09C27.19,54,27,54,26.81,54h.79v.06"/></g></g></g><path class="cls-38" d="M27.6,1c14.65,0,26.6,12.56,26.6,28s-12,28-26.6,28S1,44.48,1,29,13,1,27.6,1Zm0,54c13.59,0,24.61-11.69,24.61-26S41.19,3,27.6,3,3,14.7,3,29,14,55,27.6,55"/><g class="cls-2"><g class="cls-56"><g class="cls-2"><path class="cls-31" d="M27.6,1V0c15.22,0,27.6,13,27.6,29S42.82,58,27.6,58,0,45,0,29,12.38,0,27.6,0V1C13,1,1,13.56,1,29S13,57,27.6,57s26.6-12.55,26.6-28S42.25,1,27.6,1"/><path class="cls-31" d="M27.6,1C.36,2.16-6.88,35,10.78,50.71c17.29,15.36,44.87.69,43.39-23.09C53.24,12.57,41.82,1.13,27.6,1V0c15.22,0,27.6,13,27.6,29S42.82,58,27.6,58,0,45,0,29,12.38,0,27.6,0V1"/><path class="cls-32" d="M27.6,1C.35,2.15-6.89,35,10.78,50.71c17.29,15.36,44.87.68,43.4-23.09C53.25,12.56,41.82,1.11,27.6,1V0c15.22,0,27.6,13,27.6,29S42.82,58,27.6,58,0,45,0,29,12.38,0,27.6,0V1"/><path class="cls-33" d="M27.6,1C.35,2.15-6.89,35,10.78,50.71c17.29,15.35,44.87.68,43.41-23.09C53.26,12.55,41.83,1.1,27.6,1V0c15.22,0,27.6,13,27.6,29S42.82,58,27.6,58,0,45,0,29,12.38,0,27.6,0V1"/><path class="cls-34" d="M27.6,1h0C.34,2.14-6.9,35,10.78,50.71c17.28,15.35,44.88.67,43.42-23.1C53.28,12.54,41.84,1.09,27.6,1V0c15.22,0,27.6,13,27.6,29S42.82,58,27.6,58,0,45,0,29,12.38,0,27.6,0V1"/><path class="cls-35" d="M27.6,1C.34,2.14-6.9,35,10.77,50.72c17.28,15.35,44.88.67,43.43-23.1C53.29,12.53,41.85,1.07,27.6,1V0c15.22,0,27.6,13,27.6,29S42.82,58,27.6,58,0,45,0,29,12.38,0,27.6,0V1"/><path class="cls-36" d="M27.6,1C.33,2.13-6.91,35,10.77,50.72S55.69,52,54.22,27.62C53.3,12.52,41.86,1.06,27.6,1V0c15.22,0,27.6,13,27.6,29S42.82,58,27.6,58,0,45,0,29,12.38,0,27.6,0V1"/><path class="cls-37" d="M27.6,1h0C.33,2.12-6.91,35,10.77,50.72S55.69,52,54.23,27.62C53.31,12.51,41.87,1,27.6,1V0c15.22,0,27.6,13,27.6,29S42.82,58,27.6,58,0,45,0,29,12.38,0,27.6,0V1"/><path class="cls-38" d="M27.6,1C.32,2.12-6.92,35,10.77,50.72S55.69,52,54.23,27.62C53.33,12.49,41.88,1,27.6,1V0c15.22,0,27.6,13,27.6,29S42.82,58,27.6,58,0,45,0,29,12.38,0,27.6,0V1"/><path class="cls-39" d="M27.6.95C2.25,2-8.45,33.66,10.77,50.73,28.45,66.43,55.67,52,54.24,27.62,53.35,12.48,41.9,1,27.6.95V0c15.22,0,27.6,13,27.6,29S42.82,58,27.6,58,0,45,0,29,12.38,0,27.6,0V.95"/><path class="cls-40" d="M27.6.94C2.25,2-8.45,33.66,10.76,50.73,28.45,66.43,55.68,52,54.25,27.61,53.37,12.43,41.91,1,27.6.94V0c15.22,0,27.6,13,27.6,29S42.82,58,27.6,58,0,45,0,29,12.38,0,27.6,0V.94"/><path class="cls-41" d="M27.6.94h0C2.25,2-8.46,33.66,10.76,50.73,28.45,66.44,55.69,52,54.27,27.61,53.38,12.42,42.17,1.2,27.6.94V0c15.22,0,27.6,13,27.6,29S42.82,58,27.6,58,0,45,0,29,12.38,0,27.6,0V.94"/><path class="cls-42" d="M27.6.93C2.24,2-8.46,33.66,10.76,50.74,28.45,66.45,55.7,52,54.28,27.61,53.39,12.42,41.92.95,27.6.93V0c15.22,0,27.6,13,27.6,29S42.82,58,27.6,58,0,45,0,29,12.38,0,27.6,0V.93"/><path class="cls-43" d="M27.6.92C2.25,2-8.46,33.67,10.76,50.74c17.69,15.71,45,1.23,43.53-23.12C53.41,12.42,41.93.94,27.6.92V0c15.22,0,27.6,13,27.6,29S42.82,58,27.6,58,0,45,0,29,12.38,0,27.6,0V.92"/><path class="cls-44" d="M27.6.91C2.25,2-8.46,33.68,10.76,50.74,28.34,66.36,55.61,51.88,54.3,27.61,53.48,12.41,42,.93,27.6.91V0c15.22,0,27.6,13,27.6,29S42.82,58,27.6,58,0,45,0,29,12.38,0,27.6,0V.91"/><path class="cls-45" d="M27.6.89C2.25,2-8.45,33.68,10.75,50.74c17.42,15.47,44.7,1,43.57-23.13C53.6,12.41,42.12.92,27.6.89V0c15.22,0,27.6,13,27.6,29S42.82,58,27.6,58,0,45,0,29,12.38,0,27.6,0V.89"/><path class="cls-46" d="M27.6.88h0C2.26,2-8.45,33.69,10.75,50.75c17.6,15.63,44.9,1.15,43.59-23.13C53.4,10.12,39.86.79,27.6.88V0c15.22,0,27.6,13,27.6,29S42.82,58,27.6,58,0,45,0,29,12.38,0,27.6,0V.88"/><path class="cls-47" d="M27.6.87h0C2.26,2-8.45,33.69,10.75,50.75c17.78,15.8,45.47.43,43.56-24.18C53.16,11.74,41.93.94,27.6.87V0c15.22,0,27.6,13,27.6,29S42.82,58,27.6,58,0,45,0,29,12.38,0,27.6,0V.87"/><path class="cls-48" d="M27.6.85h0C.42,2.15-6.85,35.12,10.75,50.75c17.43,15.48,44.36,1.3,43.67-23C54,12.13,42.69.81,27.6.85V0c15.22,0,27.6,13,27.6,29S42.82,58,27.6,58,0,45,0,29,12.38,0,27.6,0V.85"/><path class="cls-49" d="M27.6.81C.44,2.15-6.84,35.14,10.74,50.75c16.55,14.7,45.44,2.56,43.67-24.44C53.41,11,42.88.94,27.6.81V0c15.22,0,27.6,13,27.6,29S42.82,58,27.6,58,0,45,0,29,12.38,0,27.6,0V.81"/><path class="cls-50" d="M27.6.77c-25.25,1.25-36,33-16.86,50C27.89,66,56.47,53.38,54.5,25A22.72,22.72,0,0,0,53,17.54,30.11,30.11,0,0,1,55.21,29c0,16-12.38,29-27.6,29S0,45,0,29,12.38,0,27.6,0V.77"/><path class="cls-51" d="M27.6.69C0,2.35-7.07,34.94,10.74,50.76c18.17,16.14,45.8,0,44.14-25.84a13.7,13.7,0,0,0-.18-1.49A30.47,30.47,0,0,1,55.21,29c0,16-12.38,29-27.6,29S0,45,0,29,12.38,0,27.6,0V.69"/><path class="cls-52" d="M27.6.51c-29.82,2.67-33.24,37-16.53,50.55,20.58,16.63,44-2.5,44.13-22.68q0,.32,0,.64c0,16-12.38,29-27.6,29S0,45,0,29,12.38,0,27.6,0V.51"/><path class="cls-53" d="M27.6.06C-1.81,3.91-7.34,37.64,12.72,52.34,29.62,64.73,52,51.6,54.94,33,53.08,47.13,41.53,58,27.6,58,12.38,58,0,45,0,29S12.38,0,27.6,0V.06"/><path class="cls-54" d="M24.18.22C1.56,4-9.22,36.28,12.71,52.35,29.18,64.43,49.46,52.08,54,37.64,50.46,49.44,40,58,27.6,58,12.38,58,0,45,0,29,0,14.16,10.68,1.87,24.39.2h0l-.21,0"/><path class="cls-55" d="M19.64,1.23C0,7.86-8.88,42.65,17.1,54.89c15.82,7.45,30.5-4.27,34.84-12.2A27.48,27.48,0,0,1,27.6,58C12.38,58,0,45,0,29,0,15.9,8.33,4.78,19.73,1.2h0l-.09,0"/><path class="cls-50" d="M41.37,3.88C39.81,3,35.34.81,27.6.77V0a26.43,26.43,0,0,1,14,4h0l-.27-.16"/><path class="cls-51" d="M36.46,1.53A31,31,0,0,0,27.6.69V0a26.27,26.27,0,0,1,9,1.6h0l-.2-.07"/><path class="cls-52" d="M32.33.43A21.53,21.53,0,0,0,27.6.51V0a26.34,26.34,0,0,1,4.9.46h0l-.18,0"/><path class="cls-53" d="M28.36,0a6.56,6.56,0,0,0-.76,0V0l.93,0h-.18"/></g></g></g></g><ellipse class="cls-57" cx="27.6" cy="29.02" rx="24.13" ry="25.06"/></svg>